<?xml version="1.0" encoding="utf-8"?>
<!-- Generator: Adobe Illustrator 28.2.0, SVG Export Plug-In . SVG Version: 6.00 Build 0)  -->
<svg version="1.1" id="Capa_1" xmlns="http://www.w3.org/2000/svg" xmlns:xlink="http://www.w3.org/1999/xlink" x="0px" y="0px"
	 viewBox="0 0 512 512" style="enable-background:new 0 0 512 512;" xml:space="preserve">
<style type="text/css">
	.st0{fill:#EC0C58;}
</style>
<g>
	<g>
		<g>
			<path class="st0" d="M404.8,284.7c-10.6-7.6-21.7-14.4-33.2-20.2c-11.5-5.9-23.4-10.8-35.7-14.9l-9.1-3l7.7-5.8
				C367.9,215.8,387,177.6,387,136C387,63.8,328.2,5,256,5S125,63.8,125,136c0,41.6,19.2,79.9,52.6,104.9l7.7,5.8l-9.1,3
				c-30.2,9.9-57.8,25.1-82.2,45.2c-44.9,36.9-76,88.4-87.8,144.9c-3.5,16.6,0.7,33.6,11.3,46.7c10.6,13,26.3,20.5,43.2,20.5H267
				c8.3,0,15-6.7,15-15s-6.7-15-15-15H60.7c-10.6,0-17-5.9-19.9-9.5c-4.9-6.1-6.8-14-5.2-21.7c10.3-49.3,37.4-94.3,76.5-126.8
				c39-32.4,88.2-51,138.5-52.2h0.3c3.4,0.1,6.8,0.1,10.3,0l0.1,0l0.2,0c45.4,1.1,88.9,15.6,125.8,42.1c6.7,4.8,16.1,3.3,20.9-3.4
				C413,298.9,411.5,289.5,404.8,284.7z M261.1,236.9l-0.2,0h-0.2c-3.2-0.1-6.4-0.1-9.5,0h-0.2l-0.2,0c-53.8-2.7-95.9-47-95.9-100.9
				c0-55.7,45.3-101,101-101s101,45.3,101,101C357,189.9,314.9,234.2,261.1,236.9z"/>
		</g>
	</g>
</g>
<g>
	<g>
		<g>
			<path class="st0" d="M502.6,481.4c2.8,2.8,4.4,6.6,4.4,10.6s-1.6,7.8-4.4,10.6c-2.8,2.8-6.6,4.4-10.6,4.4s-7.8-1.6-10.6-4.4
				L427,448.2l-54.4,54.4c-2.8,2.8-6.6,4.4-10.6,4.4s-7.8-1.6-10.6-4.4c-2.8-2.8-4.4-6.6-4.4-10.6s1.6-7.8,4.4-10.6l54.4-54.4
				l-54.4-54.4c-2.8-2.8-4.4-6.6-4.4-10.6s1.6-7.8,4.4-10.6c2.8-2.8,6.6-4.4,10.6-4.4s7.8,1.6,10.6,4.4l54.4,54.4l54.4-54.4
				c2.8-2.8,6.6-4.4,10.6-4.4s7.8,1.6,10.6,4.4c2.8,2.8,4.4,6.6,4.4,10.6s-1.6,7.8-4.4,10.6L448.2,427L502.6,481.4z"/>
		</g>
	</g>
</g>
</svg>
