<?xml version="1.0" encoding="utf-8"?>
<!-- Generator: Adobe Illustrator 28.2.0, SVG Export Plug-In . SVG Version: 6.00 Build 0)  -->
<svg version="1.1" id="Capa_1" xmlns="http://www.w3.org/2000/svg" xmlns:xlink="http://www.w3.org/1999/xlink" x="0px" y="0px"
	 viewBox="0 0 512 512" style="enable-background:new 0 0 512 512;" xml:space="preserve">
<style type="text/css">
	.st0{fill:#849FFF;}
</style>
<g>
	<g>
		<g>
			<path class="st0" d="M404.8,284.7c-21.2-15.2-44.3-27-68.8-35.1l-9.1-3l7.7-5.8C367.9,215.8,387,177.6,387,136
				C387,63.8,328.2,5,256,5S125,63.8,125,136c0,41.6,19.2,79.9,52.6,104.9l7.7,5.8l-9.1,3c-30.2,9.9-57.8,25.1-82.2,45.2
				c-44.9,36.9-76,88.4-87.8,144.9c-3.5,16.6,0.7,33.6,11.3,46.7c10.6,13,26.3,20.5,43.2,20.5H267c8.3,0,15-6.7,15-15s-6.7-15-15-15
				H60.7c-10.6,0-17-5.9-19.9-9.5c-4.9-6.1-6.8-14-5.2-21.7c10.3-49.3,37.4-94.3,76.5-126.8c39-32.4,88.2-51,138.5-52.2h0.3
				c3.4,0.1,6.8,0.1,10.3,0l0.1,0l0.2,0c45.4,1.1,88.9,15.6,125.8,42.1c6.7,4.8,16.1,3.3,20.9-3.4
				C413,298.9,411.5,289.5,404.8,284.7z M261.1,236.9l-0.2,0h-0.2c-3.2-0.1-6.4-0.1-9.5,0h-0.2l-0.2,0c-53.8-2.7-95.9-47-95.9-100.9
				c0-55.7,45.3-101,101-101s101,45.3,101,101C357,189.9,314.9,234.2,261.1,236.9z"/>
		</g>
	</g>
</g>
<g>
	<path class="st0" d="M479.4,429.6c1-0.7,1.8-1.5,2.5-2.5L479.4,429.6z"/>
	<path class="st0" d="M491.6,354.7c-8.1-8.1-19-15.4-31.5-15.4c-9.6,0-20.2,4.2-31.4,15.4l-75.5,75.5c-4.7,4.8-8.6,12.6-9.5,18.9
		l-4,28.8c-1.3,8.5,1.2,16.5,6.7,22c4.6,4.6,10.9,7.1,17.8,7.1c1.2,0,2.3-0.1,3.7-0.5l0.5-0.1l28.8-4c6.4-0.9,14.4-4.9,18.9-9.5
		l63.3-63.3l12.2-12.2C502,407,507,396.8,507,386.1C507,375.5,501.8,364.9,491.6,354.7z M400.5,477.3c-1.5,1.4-4.4,2.9-6,3.2
		l-0.5,0.1l-33.3,4.8l4.8-33.1c0.2-2.4,1.9-5.4,3.1-6.6l53.1-53c0.8,1.5,1.7,3,2.6,4.5c0.9,1.4,1.9,2.8,2.9,4.2
		c4.9,6.7,10.8,12.7,17.6,17.6c1.4,1,2.8,2,4.2,2.9c1.5,0.9,2.9,1.8,4.5,2.6L400.5,477.3z M476.1,401.8l-6.2,6.2
		c-1.7-0.7-3.3-1.4-4.8-2.2c-1.5-0.8-3-1.7-4.5-2.6c-7-4.5-13.1-10.5-17.5-17.6c-0.9-1.5-1.8-2.9-2.6-4.5c-0.8-1.6-1.6-3.2-2.2-4.9
		l6.1-6.1c4.7-4.7,9.5-8.9,15.7-8.9c5,0,9.8,2.7,16.1,8.9c4.1,3.9,9,9.9,9,15.9C485,390.6,482,395.9,476.1,401.8z"/>
	<path class="st0" d="M479.4,429.6c1-0.7,1.8-1.5,2.5-2.5L479.4,429.6z"/>
</g>
<g>
	<g>
		<path class="st0" d="M481.9,427.1c-0.7,1-1.5,1.8-2.5,2.5L481.9,427.1z"/>
	</g>
</g>
</svg>
